NotoSerifDisplay-CondensedLight.ufo
<glyph name="hyphen" format="2">
  <advance width="236"/>
  <unicode hex="002D"/>
  <outline>
    <contour>
      <point x="20" y="263" type="line"/>
      <point x="216" y="263" type="line"/>
      <point x="216" y="283" type="line"/>
      <point x="20" y="283" type="line"/>
    </contour>
  </outline>
</glyph>
<glyph name="exclamdown" format="2">
  <advance width="216"/>
  <unicode hex="00A1"/>
  <outline>
    <contour>
      <point x="83" y="-176" type="line"/>
      <point x="111" y="-176" type="line"/>
      <point x="103" y="371" type="line"/>
      <point x="88" y="371" type="line"/>
    </contour>
    <contour>
      <point x="98" y="465" type="curve" smooth="yes"/>
      <point x="108" y="465"/>
      <point x="118" y="473"/>
      <point x="118" y="503" type="curve" smooth="yes"/>
      <point x="118" y="534"/>
      <point x="108" y="543"/>
      <point x="98" y="543" type="curve" smooth="yes"/>
      <point x="87" y="543"/>
      <point x="78" y="534"/>
      <point x="78" y="503" type="curve" smooth="yes"/>
      <point x="78" y="473"/>
      <point x="87" y="465"/>
    </contour>
  </outline>
</glyph>
<glyph name="uni0191" format="2">
  <advance width="514"/>
  <unicode hex="0191"/>
  <anchor x="100" y="-10" name="bottom"/>
  <anchor x="303" y="714" name="top"/>
  <anchor x="501" y="714" name="topright"/>
  <outline>
    <contour>
      <point x="100" y="-10" type="curve" smooth="yes"/>
      <point x="179" y="-10"/>
      <point x="228" y="41"/>
      <point x="228" y="147" type="curve" smooth="yes"/>
      <point x="228" y="366" type="line"/>
      <point x="419" y="366" type="line"/>
      <point x="419" y="376" type="line"/>
      <point x="228" y="376" type="line"/>
      <point x="228" y="704" type="line"/>
      <point x="403" y="704" type="line" smooth="yes"/>
      <point x="455" y="704"/>
      <point x="461" y="690"/>
      <point x="463" y="635" type="curve" smooth="yes"/>
      <point x="466" y="551" type="line"/>
      <point x="476" y="551" type="line"/>
      <point x="471" y="714" type="line"/>
      <point x="127" y="714" type="line"/>
      <point x="127" y="704" type="line"/>
      <point x="144" y="704" type="line" smooth="yes"/>
      <point x="194" y="704"/>
      <point x="200" y="693"/>
      <point x="200" y="616" type="curve" smooth="yes"/>
      <point x="200" y="145" type="line" smooth="yes"/>
      <point x="200" y="39"/>
      <point x="163" y="0"/>
      <point x="100" y="0" type="curve" smooth="yes"/>
      <point x="38" y="0"/>
      <point x="16" y="45"/>
      <point x="16" y="139" type="curve"/>
      <point x="3" y="139"/>
      <point x="-10" y="124"/>
      <point x="-10" y="95" type="curve" smooth="yes"/>
      <point x="-10" y="49"/>
      <point x="20" y="-10"/>
    </contour>
  </outline>
</glyph>
<glyph name="florin" format="2">
  <advance width="304"/>
  <unicode hex="0192"/>
  <anchor x="72" y="-11" name="bottom"/>
  <anchor x="247" y="772" name="top"/>
  <anchor x="374" y="772" name="topright"/>
  <outline>
    <contour>
      <point x="72" y="-11" type="curve" smooth="yes"/>
      <point x="139" y="-11"/>
      <point x="182" y="39"/>
      <point x="182" y="175" type="curve" smooth="yes"/>
      <point x="182" y="526" type="line"/>
      <point x="292" y="526" type="line"/>
      <point x="292" y="536" type="line"/>
      <point x="182" y="536" type="line"/>
      <point x="182" y="602" type="line" smooth="yes"/>
      <point x="182" y="717"/>
      <point x="207" y="762"/>
      <point x="271" y="762" type="curve" smooth="yes"/>
      <point x="319" y="762"/>
      <point x="329" y="723"/>
      <point x="329" y="665" type="curve"/>
      <point x="339" y="665"/>
      <point x="355" y="670"/>
      <point x="355" y="701" type="curve" smooth="yes"/>
      <point x="355" y="747"/>
      <point x="323" y="772"/>
      <point x="273" y="772" type="curve" smooth="yes"/>
      <point x="194" y="772"/>
      <point x="154" y="712"/>
      <point x="154" y="596" type="curve" smooth="yes"/>
      <point x="154" y="536" type="line"/>
      <point x="84" y="536" type="line"/>
      <point x="84" y="526" type="line"/>
      <point x="154" y="526" type="line"/>
      <point x="154" y="169" type="line" smooth="yes"/>
      <point x="154" y="44"/>
      <point x="129" y="-1"/>
      <point x="74" y="-1" type="curve" smooth="yes"/>
      <point x="26" y="-1"/>
      <point x="16" y="38"/>
      <point x="16" y="96" type="curve"/>
      <point x="6" y="96"/>
      <point x="-10" y="91"/>
      <point x="-10" y="60" type="curve" smooth="yes"/>
      <point x="-10" y="14"/>
      <point x="22" y="-11"/>
    </contour>
  </outline>
</glyph>
<glyph name="uni024C" format="2">
  <advance width="462"/>
  <unicode hex="024C"/>
  <anchor x="235" y="0" name="bottom"/>
  <anchor x="235" y="714" name="top"/>
  <anchor x="442" y="714" name="topright"/>
  <outline>
    <contour>
      <point x="36" y="321" type="line"/>
      <point x="134" y="321" type="line"/>
      <point x="134" y="331" type="line"/>
      <point x="36" y="331" type="line"/>
    </contour>
    <component base="R" xOffset="5"/>
  </outline>
</glyph>
<glyph name="uni024F" format="2">
  <advance width="419"/>
  <unicode hex="024F"/>
  <anchor x="211" y="-240" name="bottom"/>
  <anchor x="211" y="536" name="top"/>
  <anchor x="409" y="536" name="topright"/>
  <outline>
    <contour>
      <point x="7" y="318" type="line"/>
      <point x="417" y="318" type="line"/>
      <point x="417" y="328" type="line"/>
      <point x="7" y="328" type="line"/>
    </contour>
    <component base="y" xOffset="2"/>
  </outline>
</glyph>
<glyph name="uni0294" format="2">
  <advance width="329"/>
  <unicode hex="0294"/>
  <anchor x="132" y="-6" name="bottom"/>
  <anchor x="165" y="758" name="top"/>
  <anchor x="308" y="760" name="topright"/>
  <outline>
    <contour>
      <point x="56" y="0" type="line"/>
      <point x="214" y="0" type="line"/>
      <point x="214" y="10" type="line"/>
      <point x="212" y="10" type="line" smooth="yes"/>
      <point x="154" y="10"/>
      <point x="148" y="16"/>
      <point x="148" y="85" type="curve" smooth="yes"/>
      <point x="148" y="337" type="line"/>
      <point x="245" y="415"/>
      <point x="289" y="490"/>
      <point x="289" y="594" type="curve" smooth="yes"/>
      <point x="289" y="714"/>
      <point x="230" y="758"/>
      <point x="153" y="758" type="curve" smooth="yes"/>
      <point x="70" y="758"/>
      <point x="28" y="708"/>
      <point x="28" y="657" type="curve" smooth="yes"/>
      <point x="28" y="632"/>
      <point x="38" y="613"/>
      <point x="54" y="613" type="curve"/>
      <point x="53" y="690"/>
      <point x="70" y="748"/>
      <point x="152" y="748" type="curve" smooth="yes"/>
      <point x="222" y="748"/>
      <point x="261" y="705"/>
      <point x="261" y="598" type="curve" smooth="yes"/>
      <point x="261" y="499"/>
      <point x="227" y="430"/>
      <point x="120" y="346" type="curve"/>
      <point x="120" y="85" type="line" smooth="yes"/>
      <point x="120" y="18"/>
      <point x="114" y="10"/>
      <point x="59" y="10" type="curve" smooth="yes"/>
      <point x="56" y="10" type="line"/>
    </contour>
  </outline>
</glyph>
<glyph name="uni02F1" format="2">
  <advance width="240"/>
  <unicode hex="02F1"/>
  <outline>
    <contour>
      <point x="196" y="-241" type="curve"/>
      <point x="200" y="-241" type="line"/>
      <point x="200" y="-227" type="line"/>
      <point x="159" y="-186"/>
      <point x="114" y="-145"/>
      <point x="66" y="-111" type="curve"/>
      <point x="114" y="-77"/>
      <point x="159" y="-36"/>
      <point x="200" y="3" type="curve"/>
      <point x="200" y="17" type="line"/>
      <point x="196" y="17" type="line"/>
      <point x="151" y="-29"/>
      <point x="84" y="-72"/>
      <point x="40" y="-97" type="curve"/>
      <point x="40" y="-127" type="line"/>
      <point x="94" y="-158"/>
      <point x="148" y="-196"/>
    </contour>
  </outline>
</glyph>
<glyph name="lowlinecomb" format="2">
  <unicode hex="0332"/>
  <anchor x="1" y="0" name="_bottom"/>
  <anchor x="1" y="-92" name="bottom"/>
  <outline>
    <contour>
      <point x="-159" y="-88" type="line"/>
      <point x="160" y="-88" type="line"/>
      <point x="160" y="-68" type="line"/>
      <point x="-159" y="-68" type="line"/>
    </contour>
  </outline>
</glyph>
<glyph name="righthalfringabovecomb" format="2">
  <unicode hex="0357"/>
  <anchor x="1" y="536" name="_top"/>
  <anchor x="1" y="814" name="top"/>
  <outline>
    <contour>
      <point x="-45" y="596" type="line"/>
      <point x="6" y="596"/>
      <point x="46" y="635"/>
      <point x="46" y="705" type="curve" smooth="yes"/>
      <point x="46" y="776"/>
      <point x="6" y="814"/>
      <point x="-45" y="814" type="curve"/>
      <point x="-45" y="804" type="line"/>
      <point x="-11" y="801"/>
      <point x="18" y="777"/>
      <point x="18" y="705" type="curve" smooth="yes"/>
      <point x="18" y="633"/>
      <point x="-11" y="609"/>
      <point x="-45" y="606" type="curve"/>
    </contour>
  </outline>
</glyph>
<glyph name="doublebrevecomb" format="2">
  <unicode hex="035D"/>
  <anchor x="0" y="536" name="_top"/>
  <anchor x="0" y="765" name="top"/>
  <outline>
    <contour>
      <point x="0" y="595" type="curve" smooth="yes"/>
      <point x="138" y="595"/>
      <point x="232" y="638"/>
      <point x="287" y="765" type="curve"/>
      <point x="276" y="765" type="line"/>
      <point x="239" y="680"/>
      <point x="147" y="623"/>
      <point x="0" y="623" type="curve" smooth="yes"/>
      <point x="-147" y="623"/>
      <point x="-239" y="680"/>
      <point x="-276" y="765" type="curve"/>
      <point x="-287" y="765" type="line"/>
      <point x="-232" y="638"/>
      <point x="-138" y="595"/>
    </contour>
  </outline>
</glyph>
<glyph name="tonos" format="2">
  <advance width="437"/>
  <unicode hex="0384"/>
  <anchor x="243" y="536" name="_top"/>
  <outline>
    <contour>
      <point x="199" y="606" type="line"/>
      <point x="203" y="606" type="line"/>
      <point x="236" y="681"/>
      <point x="245" y="702"/>
      <point x="280" y="784" type="curve"/>
      <point x="280" y="796" type="line"/>
      <point x="250" y="796" type="line"/>
      <point x="230" y="723"/>
      <point x="219" y="678"/>
      <point x="199" y="614" type="curve"/>
    </contour>
  </outline>
</glyph>
<glyph name="uni0488" format="2">
  <advance width="749"/>
  <unicode hex="0488"/>
  <outline>
    <contour>
      <point x="81" y="462" type="curve"/>
      <point x="106" y="462" type="line"/>
      <point x="109" y="513"/>
      <point x="126" y="529"/>
      <point x="158" y="529" type="curve" smooth="yes"/>
      <point x="184" y="529"/>
      <point x="207" y="510"/>
      <point x="212" y="462" type="curve"/>
      <point x="237" y="462" type="line"/>
      <point x="233" y="518"/>
      <point x="207" y="557"/>
      <point x="158" y="557" type="curve" smooth="yes"/>
      <point x="107" y="557"/>
      <point x="83" y="520"/>
    </contour>
    <contour>
      <point x="14" y="224" type="curve"/>
      <point x="39" y="224" type="line"/>
      <point x="41" y="276"/>
      <point x="59" y="291"/>
      <point x="92" y="291" type="curve" smooth="yes"/>
      <point x="120" y="291"/>
      <point x="143" y="273"/>
      <point x="146" y="224" type="curve"/>
      <point x="171" y="224" type="line"/>
      <point x="168" y="280"/>
      <point x="140" y="319"/>
      <point x="92" y="319" type="curve" smooth="yes"/>
      <point x="42" y="319"/>
      <point x="17" y="282"/>
    </contour>
    <contour>
      <point x="81" y="-20" type="curve"/>
      <point x="106" y="-20" type="line"/>
      <point x="109" y="31"/>
      <point x="126" y="47"/>
      <point x="158" y="47" type="curve" smooth="yes"/>
      <point x="184" y="47"/>
      <point x="207" y="28"/>
      <point x="212" y="-20" type="curve"/>
      <point x="237" y="-20" type="line"/>
      <point x="233" y="36"/>
      <point x="207" y="75"/>
      <point x="158" y="75" type="curve" smooth="yes"/>
      <point x="107" y="75"/>
      <point x="83" y="38"/>
    </contour>
    <contour>
      <point x="293" y="-156" type="curve"/>
      <point x="318" y="-156" type="line"/>
      <point x="321" y="-105"/>
      <point x="338" y="-89"/>
      <point x="371" y="-89" type="curve" smooth="yes"/>
      <point x="396" y="-89"/>
      <point x="420" y="-108"/>
      <point x="425" y="-156" type="curve"/>
      <point x="450" y="-156" type="line"/>
      <point x="445" y="-100"/>
      <point x="419" y="-61"/>
      <point x="371" y="-61" type="curve" smooth="yes"/>
      <point x="320" y="-61"/>
      <point x="295" y="-98"/>
    </contour>
    <contour>
      <point x="508" y="-20" type="curve"/>
      <point x="533" y="-20" type="line"/>
      <point x="536" y="31"/>
      <point x="553" y="47"/>
      <point x="585" y="47" type="curve" smooth="yes"/>
      <point x="612" y="47"/>
      <point x="635" y="28"/>
      <point x="639" y="-20" type="curve"/>
      <point x="664" y="-20" type="line"/>
      <point x="660" y="36"/>
      <point x="634" y="75"/>
      <point x="585" y="75" type="curve" smooth="yes"/>
      <point x="536" y="75"/>
      <point x="511" y="38"/>
    </contour>
    <contour>
      <point x="578" y="224" type="curve"/>
      <point x="603" y="224" type="line"/>
      <point x="606" y="275"/>
      <point x="625" y="291"/>
      <point x="657" y="291" type="curve" smooth="yes"/>
      <point x="682" y="291"/>
      <point x="705" y="272"/>
      <point x="710" y="224" type="curve"/>
      <point x="735" y="224" type="line"/>
      <point x="731" y="280"/>
      <point x="704" y="319"/>
      <point x="657" y="319" type="curve" smooth="yes"/>
      <point x="605" y="319"/>
      <point x="580" y="282"/>
    </contour>
    <contour>
      <point x="508" y="462" type="curve"/>
      <point x="533" y="462" type="line"/>
      <point x="536" y="513"/>
      <point x="553" y="529"/>
      <point x="585" y="529" type="curve" smooth="yes"/>
      <point x="612" y="529"/>
      <point x="635" y="510"/>
      <point x="639" y="462" type="curve"/>
      <point x="664" y="462" type="line"/>
      <point x="660" y="518"/>
      <point x="634" y="557"/>
      <point x="585" y="557" type="curve" smooth="yes"/>
      <point x="536" y="557"/>
      <point x="511" y="520"/>
    </contour>
    <contour>
      <point x="293" y="601" type="curve"/>
      <point x="318" y="601" type="line"/>
      <point x="321" y="652"/>
      <point x="338" y="668"/>
      <point x="371" y="668" type="curve" smooth="yes"/>
      <point x="396" y="668"/>
      <point x="420" y="649"/>
      <point x="425" y="601" type="curve"/>
      <point x="450" y="601" type="line"/>
      <point x="445" y="657"/>
      <point x="419" y="696"/>
      <point x="371" y="696" type="curve" smooth="yes"/>
      <point x="320" y="696"/>
      <point x="295" y="659"/>
    </contour>
  </outline>
</glyph>
<glyph name="uni04CA" format="2">
  <advance width="518"/>
  <unicode hex="04CA"/>
  <anchor x="260" y="0" name="bottom"/>
  <anchor x="260" y="536" name="top"/>
  <outline>
    <contour>
      <point x="423" y="-210" type="line"/>
      <point x="453" y="-210" type="line"/>
      <point x="497" y="0" type="line"/>
      <point x="497" y="10" type="line"/>
      <point x="487" y="10" type="line"/>
      <point x="487" y="0" type="line"/>
    </contour>
    <component base="afii10079"/>
  </outline>
</glyph>
<glyph name="uni051E" format="2">
  <advance width="502"/>
  <unicode hex="051E"/>
  <anchor x="251" y="0" name="bottom"/>
  <anchor x="251" y="714" name="top"/>
  <outline>
    <contour>
      <point x="380" y="477" type="line"/>
      <point x="385" y="485" type="line"/>
      <point x="202" y="609" type="line"/>
      <point x="197" y="601" type="line"/>
    </contour>
    <component base="afii10028"/>
  </outline>
</glyph>
<glyph name="uni052D" format="2">
  <advance width="430"/>
  <unicode hex="052D"/>
  <anchor x="215" y="-210" name="bottom"/>
  <anchor x="215" y="536" name="top"/>
  <outline>
    <contour>
      <point x="11" y="-210" type="line"/>
      <point x="21" y="-210" type="line"/>
      <point x="22" y="-134" type="line" smooth="yes"/>
      <point x="24" y="-19"/>
      <point x="41" y="0"/>
      <point x="126" y="0" type="curve" smooth="yes"/>
      <point x="300" y="0" type="line" smooth="yes"/>
      <point x="389" y="0"/>
      <point x="402" y="-26"/>
      <point x="404" y="-144" type="curve" smooth="yes"/>
      <point x="405" y="-210" type="line"/>
      <point x="415" y="-210" type="line"/>
      <point x="415" y="10" type="line"/>
      <point x="399" y="10" type="line" smooth="yes"/>
      <point x="339" y="10"/>
      <point x="333" y="16"/>
      <point x="333" y="86" type="curve" smooth="yes"/>
      <point x="333" y="450" type="line" smooth="yes"/>
      <point x="333" y="519"/>
      <point x="339" y="526"/>
      <point x="399" y="526" type="curve" smooth="yes"/>
      <point x="423" y="526" type="line"/>
      <point x="423" y="536" type="line"/>
      <point x="305" y="536" type="line"/>
      <point x="155" y="198" type="line"/>
      <point x="122" y="208"/>
      <point x="103" y="234"/>
      <point x="103" y="315" type="curve" smooth="yes"/>
      <point x="103" y="449" type="line" smooth="yes"/>
      <point x="103" y="519"/>
      <point x="109" y="525"/>
      <point x="169" y="525" type="curve" smooth="yes"/>
      <point x="181" y="525" type="line"/>
      <point x="181" y="535" type="line"/>
      <point x="-1" y="535" type="line"/>
      <point x="-1" y="525" type="line"/>
      <point x="8" y="525" type="line" smooth="yes"/>
      <point x="69" y="525"/>
      <point x="75" y="519"/>
      <point x="75" y="449" type="curve" smooth="yes"/>
      <point x="75" y="311" type="line" smooth="yes"/>
      <point x="75" y="245"/>
      <point x="99" y="200"/>
      <point x="152" y="190" type="curve"/>
      <point x="74" y="15" type="line"/>
      <point x="11" y="15" type="line"/>
    </contour>
    <contour>
      <point x="85" y="15" type="line"/>
      <point x="162" y="188" type="line"/>
      <point x="167" y="188"/>
      <point x="171" y="188"/>
      <point x="176" y="188" type="curve" smooth="yes"/>
      <point x="227" y="188"/>
      <point x="262" y="205"/>
      <point x="305" y="240" type="curve"/>
      <point x="305" y="15" type="line"/>
    </contour>
    <contour>
      <point x="169" y="197" type="curve" smooth="yes"/>
      <point x="168" y="197"/>
      <point x="167" y="197"/>
      <point x="166" y="197" type="curve"/>
      <point x="305" y="511" type="line"/>
      <point x="305" y="253" type="line"/>
      <point x="252" y="208"/>
      <point x="225" y="196"/>
    </contour>
  </outline>
</glyph>
<glyph name="uni1AB9" format="2">
  <unicode hex="1AB9"/>
  <anchor x="-310" y="65" name="_bottom"/>
  <anchor x="-310" y="-240" name="bottom"/>
  <outline>
    <contour>
      <point x="-337" y="-236" type="line"/>
      <point x="-261" y="29" type="line"/>
      <point x="-280" y="35" type="line"/>
      <point x="-357" y="-230" type="line"/>
    </contour>
  </outline>
</glyph>
<glyph name="uni1ABA" format="2">
  <unicode hex="1ABA"/>
  <anchor x="-314" y="65" name="_bottom"/>
  <anchor x="-314" y="-265" name="bottom"/>
  <outline>
    <contour>
      <point x="-335" y="-236" type="line"/>
      <point x="-259" y="29" type="line"/>
      <point x="-278" y="35" type="line"/>
      <point x="-355" y="-230" type="line"/>
    </contour>
    <contour>
      <point x="-340" y="-265" type="curve" smooth="yes"/>
      <point x="-322" y="-265"/>
      <point x="-313" y="-253"/>
      <point x="-313" y="-226" type="curve" smooth="yes"/>
      <point x="-313" y="-199"/>
      <point x="-322" y="-186"/>
      <point x="-340" y="-186" type="curve" smooth="yes"/>
      <point x="-360" y="-186"/>
      <point x="-370" y="-199"/>
      <point x="-370" y="-226" type="curve" smooth="yes"/>
      <point x="-370" y="-253"/>
      <point x="-360" y="-265"/>
    </contour>
  </outline>
</glyph>
<glyph name="uni1ABF" format="2">
  <unicode hex="1ABF"/>
  <anchor x="0" y="0" name="_bottom"/>
  <outline>
    <contour>
      <point x="-120" y="-89" type="curve" smooth="yes"/>
      <point x="-71" y="-278" type="line"/>
      <point x="-62" y="-278" type="line"/>
      <point x="-4" y="-72" type="line"/>
      <point x="59" y="-278" type="line"/>
      <point x="68" y="-278" type="line"/>
      <point x="113" y="-87" type="line" smooth="yes"/>
      <point x="117" y="-69"/>
      <point x="120" y="-68"/>
      <point x="139" y="-68" type="curve" smooth="yes"/>
      <point x="147" y="-68" type="line"/>
      <point x="147" y="-64" type="line"/>
      <point x="83" y="-64" type="line"/>
      <point x="83" y="-68" type="line"/>
      <point x="93" y="-68" type="line" smooth="yes"/>
      <point x="107" y="-68"/>
      <point x="109" y="-70"/>
      <point x="109" y="-76" type="curve" smooth="yes"/>
      <point x="109" y="-80"/>
      <point x="107" y="-90"/>
      <point x="104" y="-103" type="curve" smooth="yes"/>
      <point x="83" y="-195" type="line" smooth="yes"/>
      <point x="75" y="-228"/>
      <point x="70" y="-251"/>
      <point x="67" y="-266" type="curve"/>
      <point x="66" y="-266" type="line"/>
      <point x="63" y="-250"/>
      <point x="52" y="-210"/>
      <point x="46" y="-190" type="curve" smooth="yes"/>
      <point x="5" y="-64" type="line"/>
      <point x="-7" y="-64" type="line"/>
      <point x="-43" y="-195" type="line" smooth="yes"/>
      <point x="-48" y="-215"/>
      <point x="-59" y="-253"/>
      <point x="-63" y="-266" type="curve"/>
      <point x="-64" y="-266" type="line"/>
      <point x="-66" y="-252"/>
      <point x="-74" y="-218"/>
      <point x="-79" y="-199" type="curve" smooth="yes"/>
      <point x="-104" y="-104" type="line" smooth="yes"/>
      <point x="-106" y="-95"/>
      <point x="-110" y="-79"/>
      <point x="-110" y="-76" type="curve" smooth="yes"/>
      <point x="-110" y="-70"/>
      <point x="-108" y="-68"/>
      <point x="-93" y="-68" type="curve" smooth="yes"/>
      <point x="-83" y="-68" type="line"/>
      <point x="-83" y="-64" type="line"/>
      <point x="-146" y="-64" type="line"/>
      <point x="-146" y="-68" type="line"/>
      <point x="-145" y="-68" type="line" smooth="yes"/>
      <point x="-128" y="-68"/>
      <point x="-125" y="-70"/>
    </contour>
  </outline>
</glyph>
<glyph name="uni1AC0" format="2">
  <unicode hex="1AC0"/>
  <anchor x="0" y="0" name="_bottom"/>
  <outline>
    <contour>
      <point x="120" y="-253" type="curve" smooth="yes"/>
      <point x="71" y="-64" type="line"/>
      <point x="62" y="-64" type="line"/>
      <point x="4" y="-270" type="line"/>
      <point x="-59" y="-64" type="line"/>
      <point x="-68" y="-64" type="line"/>
      <point x="-113" y="-255" type="line" smooth="yes"/>
      <point x="-117" y="-273"/>
      <point x="-120" y="-274"/>
      <point x="-139" y="-274" type="curve" smooth="yes"/>
      <point x="-147" y="-274" type="line"/>
      <point x="-147" y="-278" type="line"/>
      <point x="-83" y="-278" type="line"/>
      <point x="-83" y="-274" type="line"/>
      <point x="-93" y="-274" type="line" smooth="yes"/>
      <point x="-107" y="-274"/>
      <point x="-109" y="-272"/>
      <point x="-109" y="-266" type="curve" smooth="yes"/>
      <point x="-109" y="-262"/>
      <point x="-107" y="-252"/>
      <point x="-104" y="-239" type="curve" smooth="yes"/>
      <point x="-83" y="-147" type="line" smooth="yes"/>
      <point x="-75" y="-114"/>
      <point x="-70" y="-91"/>
      <point x="-67" y="-76" type="curve"/>
      <point x="-66" y="-76" type="line"/>
      <point x="-63" y="-92"/>
      <point x="-52" y="-132"/>
      <point x="-46" y="-152" type="curve" smooth="yes"/>
      <point x="-5" y="-278" type="line"/>
      <point x="7" y="-278" type="line"/>
      <point x="43" y="-147" type="line" smooth="yes"/>
      <point x="48" y="-127"/>
      <point x="59" y="-89"/>
      <point x="63" y="-76" type="curve"/>
      <point x="64" y="-76" type="line"/>
      <point x="66" y="-90"/>
      <point x="74" y="-124"/>
      <point x="79" y="-143" type="curve" smooth="yes"/>
      <point x="104" y="-238" type="line" smooth="yes"/>
      <point x="106" y="-247"/>
      <point x="110" y="-263"/>
      <point x="110" y="-266" type="curve" smooth="yes"/>
      <point x="110" y="-272"/>
      <point x="108" y="-274"/>
      <point x="93" y="-274" type="curve" smooth="yes"/>
      <point x="83" y="-274" type="line"/>
      <point x="83" y="-278" type="line"/>
      <point x="146" y="-278" type="line"/>
      <point x="146" y="-274" type="line"/>
      <point x="145" y="-274" type="line" smooth="yes"/>
      <point x="128" y="-274"/>
      <point x="125" y="-272"/>
    </contour>
  </outline>
</glyph>
<glyph name="uni1D24" format="2">
  <advance width="329"/>
  <unicode hex="1D24"/>
  <anchor x="170" y="0" name="bottom"/>
  <anchor x="170" y="760" name="top"/>
  <outline>
    <contour>
      <point x="161" y="-11" type="curve" smooth="yes"/>
      <point x="249" y="-11"/>
      <point x="287" y="50"/>
      <point x="287" y="98" type="curve" smooth="yes"/>
      <point x="287" y="129"/>
      <point x="271" y="139"/>
      <point x="261" y="139" type="curve"/>
      <point x="261" y="57"/>
      <point x="239" y="-1"/>
      <point x="161" y="-1" type="curve" smooth="yes"/>
      <point x="84" y="-1"/>
      <point x="47" y="46"/>
      <point x="47" y="142" type="curve" smooth="yes"/>
      <point x="47" y="242"/>
      <point x="82" y="307"/>
      <point x="179" y="341" type="curve"/>
      <point x="179" y="419" type="line"/>
      <point x="262" y="459"/>
      <point x="311" y="510"/>
      <point x="311" y="617" type="curve" smooth="yes"/>
      <point x="311" y="722"/>
      <point x="255" y="772"/>
      <point x="169" y="772" type="curve" smooth="yes"/>
      <point x="81" y="772"/>
      <point x="43" y="711"/>
      <point x="43" y="663" type="curve" smooth="yes"/>
      <point x="43" y="632"/>
      <point x="59" y="622"/>
      <point x="69" y="622" type="curve"/>
      <point x="69" y="704"/>
      <point x="91" y="762"/>
      <point x="169" y="762" type="curve" smooth="yes"/>
      <point x="246" y="762"/>
      <point x="283" y="715"/>
      <point x="283" y="619" type="curve" smooth="yes"/>
      <point x="283" y="519"/>
      <point x="248" y="454"/>
      <point x="151" y="420" type="curve"/>
      <point x="151" y="342" type="line"/>
      <point x="68" y="302"/>
      <point x="19" y="251"/>
      <point x="19" y="144" type="curve" smooth="yes"/>
      <point x="19" y="39"/>
      <point x="75" y="-11"/>
    </contour>
  </outline>
</glyph>
<glyph name="uni1D2F" format="2">
  <advance width="308"/>
  <unicode hex="1D2F"/>
  <anchor x="154.05" y="287.0" name="bottom"/>
  <anchor x="154.05" y="715.4" name="top"/>
  <anchor x="295.1" y="715.4" name="topright"/>
  <outline>
    <contour>
      <point x="22" y="509" type="line"/>
      <point x="277" y="509" type="line"/>
      <point x="277" y="515" type="line"/>
      <point x="22" y="515" type="line"/>
    </contour>
    <component base="B" xScale="0.65" yScale="0.6" yOffset="287"/>
  </outline>
</glyph>
<glyph name="uni1D72" format="2">
  <advance width="318"/>
  <unicode hex="1D72"/>
  <anchor x="119" y="0" name="bottom"/>
  <anchor x="189" y="536" name="top"/>
  <anchor x="338" y="536" name="topright"/>
  <outline>
    <contour>
      <point x="0" y="230" type="curve"/>
      <point x="10" y="230" type="line"/>
      <point x="13" y="256"/>
      <point x="21" y="288"/>
      <point x="57" y="288" type="curve" smooth="yes"/>
      <point x="103" y="288"/>
      <point x="118" y="235"/>
      <point x="170" y="235" type="curve" smooth="yes"/>
      <point x="219" y="235"/>
      <point x="230" y="282"/>
      <point x="232" y="318" type="curve"/>
      <point x="222" y="318" type="line"/>
      <point x="220" y="291"/>
      <point x="213" y="260"/>
      <point x="177" y="260" type="curve" smooth="yes"/>
      <point x="130" y="260"/>
      <point x="116" y="313"/>
      <point x="62" y="313" type="curve" smooth="yes"/>
      <point x="13" y="313"/>
      <point x="3" y="268"/>
    </contour>
    <component base="r"/>
  </outline>
</glyph>
<glyph name="uni1D75" format="2">
  <advance width="229"/>
  <unicode hex="1D75"/>
  <anchor x="155" y="0" name="bottom"/>
  <anchor x="115" y="268" name="center"/>
  <anchor x="91" y="657" name="top"/>
  <anchor x="209" y="657" name="topright"/>
  <outline>
    <contour>
      <point x="-32" y="251" type="curve"/>
      <point x="-22" y="251" type="line"/>
      <point x="-19" y="277"/>
      <point x="-11" y="309"/>
      <point x="25" y="309" type="curve" smooth="yes"/>
      <point x="71" y="309"/>
      <point x="86" y="256"/>
      <point x="138" y="256" type="curve" smooth="yes"/>
      <point x="187" y="256"/>
      <point x="198" y="303"/>
      <point x="200" y="339" type="curve"/>
      <point x="190" y="339" type="line"/>
      <point x="188" y="312"/>
      <point x="181" y="281"/>
      <point x="145" y="281" type="curve" smooth="yes"/>
      <point x="98" y="281"/>
      <point x="84" y="334"/>
      <point x="30" y="334" type="curve" smooth="yes"/>
      <point x="-19" y="334"/>
      <point x="-29" y="289"/>
    </contour>
    <component base="t"/>
  </outline>
</glyph>
<glyph name="uni1D7C" format="2">
  <advance width="210"/>
  <unicode hex="1D7C"/>
  <anchor x="105" y="0" name="bottom"/>
  <anchor x="105" y="536" name="top"/>
  <outline>
    <contour>
      <point x="11" y="277" type="line"/>
      <point x="192" y="277" type="line"/>
      <point x="192" y="287" type="line"/>
      <point x="11" y="287" type="line"/>
    </contour>
    <component base="iotaLatin"/>
  </outline>
</glyph>
<glyph name="uni1D7D" format="2">
  <advance width="442"/>
  <unicode hex="1D7D"/>
  <anchor x="222" y="-240" name="bottom"/>
  <anchor x="222" y="536" name="top"/>
  <anchor x="423" y="536" name="topright"/>
  <outline>
    <contour>
      <point x="16" y="263" type="line"/>
      <point x="438" y="263" type="line"/>
      <point x="438" y="273" type="line"/>
      <point x="16" y="273" type="line"/>
    </contour>
    <component base="p"/>
  </outline>
</glyph>
<glyph name="uni1D8B" format="2">
  <advance width="306"/>
  <unicode hex="1D8B"/>
  <anchor x="104" y="-242" name="bottom"/>
  <anchor x="104" y="764" name="top"/>
  <outline>
    <contour>
      <point x="226" y="-195" type="curve" smooth="yes"/>
      <point x="271" y="-195"/>
      <point x="287" y="-162"/>
      <point x="287" y="-106" type="curve" smooth="yes"/>
      <point x="287" y="100" type="line"/>
      <point x="107" y="100" type="line"/>
      <point x="107" y="90" type="line"/>
      <point x="277" y="90" type="line"/>
      <point x="277" y="-101" type="line" smooth="yes"/>
      <point x="277" y="-148"/>
      <point x="264" y="-168"/>
      <point x="230" y="-168" type="curve" smooth="yes"/>
      <point x="201" y="-168"/>
      <point x="187" y="-149"/>
      <point x="187" y="-121" type="curve"/>
      <point x="177" y="-123"/>
      <point x="171" y="-133"/>
      <point x="171" y="-148" type="curve" smooth="yes"/>
      <point x="171" y="-177"/>
      <point x="193" y="-195"/>
    </contour>
    <component base="uni0283"/>
  </outline>
</glyph>
<glyph name="uni1D93" format="2">
  <advance width="344"/>
  <unicode hex="1D93"/>
  <anchor x="169" y="0" name="bottom"/>
  <anchor x="169" y="536" name="top"/>
  <outline>
    <contour>
      <point x="359" y="-195" type="curve" smooth="yes"/>
      <point x="392" y="-195"/>
      <point x="414" y="-177"/>
      <point x="414" y="-148" type="curve" smooth="yes"/>
      <point x="414" y="-133"/>
      <point x="408" y="-123"/>
      <point x="398" y="-121" type="curve"/>
      <point x="398" y="-149"/>
      <point x="384" y="-168"/>
      <point x="355" y="-168" type="curve" smooth="yes"/>
      <point x="321" y="-168"/>
      <point x="308" y="-148"/>
      <point x="308" y="-101" type="curve" smooth="yes"/>
      <point x="308" y="80" type="line"/>
      <point x="298" y="80" type="line"/>
      <point x="298" y="-106" type="line" smooth="yes"/>
      <point x="298" y="-162"/>
      <point x="314" y="-195"/>
    </contour>
    <component base="uni025B"/>
  </outline>
</glyph>
<glyph name="uni1D94" format="2">
  <advance width="338"/>
  <unicode hex="1D94"/>
  <anchor x="172" y="0" name="bottom"/>
  <anchor x="152" y="536" name="top"/>
  <outline>
    <contour>
      <point x="91" y="-195" type="curve" smooth="yes"/>
      <point x="124" y="-195"/>
      <point x="146" y="-177"/>
      <point x="146" y="-148" type="curve" smooth="yes"/>
      <point x="146" y="-133"/>
      <point x="140" y="-123"/>
      <point x="130" y="-121" type="curve"/>
      <point x="130" y="-149"/>
      <point x="116" y="-168"/>
      <point x="87" y="-168" type="curve" smooth="yes"/>
      <point x="53" y="-168"/>
      <point x="40" y="-148"/>
      <point x="40" y="-101" type="curve" smooth="yes"/>
      <point x="40" y="79" type="line"/>
      <point x="30" y="79" type="line"/>
      <point x="30" y="-106" type="line" smooth="yes"/>
      <point x="30" y="-162"/>
      <point x="46" y="-195"/>
    </contour>
    <component base="afii10073"/>
  </outline>
</glyph>
<glyph name="uni1D96" format="2">
  <advance width="219"/>
  <unicode hex="1D96"/>
  <anchor x="110" y="0" name="bottom"/>
  <anchor x="114" y="738" name="top"/>
  <anchor x="179" y="738" name="topright"/>
  <outline>
    <contour>
      <point x="263" y="-195" type="curve" smooth="yes"/>
      <point x="296" y="-195"/>
      <point x="318" y="-177"/>
      <point x="318" y="-148" type="curve" smooth="yes"/>
      <point x="318" y="-133"/>
      <point x="312" y="-123"/>
      <point x="302" y="-121" type="curve"/>
      <point x="302" y="-149"/>
      <point x="288" y="-168"/>
      <point x="259" y="-168" type="curve" smooth="yes"/>
      <point x="225" y="-168"/>
      <point x="212" y="-148"/>
      <point x="212" y="-101" type="curve" smooth="yes"/>
      <point x="212" y="10" type="line"/>
      <point x="202" y="10" type="line"/>
      <point x="202" y="-106" type="line" smooth="yes"/>
      <point x="202" y="-162"/>
      <point x="218" y="-195"/>
    </contour>
    <component base="i"/>
  </outline>
</glyph>
<glyph name="uni1D99" format="2">
  <advance width="458"/>
  <unicode hex="1D99"/>
  <anchor x="229" y="0" name="bottom"/>
  <anchor x="229" y="536" name="top"/>
  <anchor x="418" y="536" name="topright"/>
  <outline>
    <contour>
      <point x="491" y="-195" type="curve" smooth="yes"/>
      <point x="524" y="-195"/>
      <point x="546" y="-177"/>
      <point x="546" y="-148" type="curve" smooth="yes"/>
      <point x="546" y="-133"/>
      <point x="540" y="-123"/>
      <point x="530" y="-121" type="curve"/>
      <point x="530" y="-149"/>
      <point x="516" y="-168"/>
      <point x="487" y="-168" type="curve" smooth="yes"/>
      <point x="453" y="-168"/>
      <point x="440" y="-148"/>
      <point x="440" y="-101" type="curve" smooth="yes"/>
      <point x="440" y="10" type="line"/>
      <point x="430" y="10" type="line"/>
      <point x="430" y="-106" type="line" smooth="yes"/>
      <point x="430" y="-162"/>
      <point x="446" y="-195"/>
    </contour>
    <component base="u"/>
  </outline>
</glyph>
<glyph name="uni1FEF" format="2">
  <unicode hex="1FEF"/>
  <anchor x="-55" y="536" name="_top"/>
  <anchor x="-55" y="760" name="top"/>
  <outline>
    <contour>
      <point x="-14" y="600" type="curve"/>
      <point x="-10" y="600" type="line"/>
      <point x="-10" y="611" type="line"/>
      <point x="-25" y="643"/>
      <point x="-55" y="716"/>
      <point x="-66" y="760" type="curve"/>
      <point x="-96" y="760" type="line"/>
      <point x="-96" y="752" type="line"/>
      <point x="-79" y="715"/>
      <point x="-34" y="632"/>
    </contour>
  </outline>
</glyph>
<glyph name="uni1FFD" format="2">
  <advance width="154"/>
  <unicode hex="1FFD"/>
  <anchor x="80" y="536" name="_top"/>
  <anchor x="80" y="760" name="top"/>
  <outline>
    <contour>
      <point x="35" y="600" type="line"/>
      <point x="39" y="600" type="line"/>
      <point x="56" y="626"/>
      <point x="107" y="725"/>
      <point x="119" y="752" type="curve"/>
      <point x="119" y="760" type="line"/>
      <point x="89" y="760" type="line"/>
      <point x="77" y="716"/>
      <point x="51" y="648"/>
      <point x="35" y="611" type="curve"/>
    </contour>
  </outline>
</glyph>
<glyph name="plussuperior" format="2">
  <advance width="294"/>
  <unicode hex="207A"/>
  <outline>
    <contour>
      <point x="137" y="329" type="line"/>
      <point x="157" y="329" type="line"/>
      <point x="157" y="472" type="line"/>
      <point x="264" y="472" type="line"/>
      <point x="264" y="492" type="line"/>
      <point x="157" y="492" type="line"/>
      <point x="157" y="634" type="line"/>
      <point x="137" y="634" type="line"/>
      <point x="137" y="492" type="line"/>
      <point x="30" y="492" type="line"/>
      <point x="30" y="472" type="line"/>
      <point x="137" y="472" type="line"/>
    </contour>
  </outline>
</glyph>
<glyph name="uni20A5" format="2">
  <advance width="684"/>
  <unicode hex="20A5"/>
  <anchor x="342" y="0" name="bottom"/>
  <anchor x="342" y="536" name="top"/>
  <anchor x="664" y="536" name="topright"/>
  <outline>
    <contour>
      <point x="188" y="-106" type="line"/>
      <point x="198" y="-106" type="line"/>
      <point x="443" y="666" type="line"/>
      <point x="433" y="666" type="line"/>
    </contour>
    <component base="m"/>
  </outline>
</glyph>
<glyph name="uni20A9" format="2">
  <advance width="771"/>
  <unicode hex="20A9"/>
  <outline>
    <contour>
      <point x="211" y="0" type="line"/>
      <point x="229" y="0" type="line"/>
      <point x="296" y="298" type="line"/>
      <point x="465" y="298" type="line"/>
      <point x="534" y="0" type="line"/>
      <point x="552" y="0" type="line"/>
      <point x="618" y="298" type="line"/>
      <point x="739" y="298" type="line"/>
      <point x="739" y="308" type="line"/>
      <point x="621" y="308" type="line"/>
      <point x="645" y="416" type="line"/>
      <point x="739" y="416" type="line"/>
      <point x="739" y="426" type="line"/>
      <point x="647" y="426" type="line"/>
      <point x="698" y="655" type="line" smooth="yes"/>
      <point x="708" y="701"/>
      <point x="718" y="704"/>
      <point x="762" y="704" type="curve" smooth="yes"/>
      <point x="765" y="704" type="line"/>
      <point x="765" y="714" type="line"/>
      <point x="607" y="714" type="line"/>
      <point x="607" y="704" type="line"/>
      <point x="634" y="704" type="line" smooth="yes"/>
      <point x="682" y="704"/>
      <point x="687" y="695"/>
      <point x="687" y="676" type="curve" smooth="yes"/>
      <point x="687" y="662"/>
      <point x="685" y="644"/>
      <point x="676" y="603" type="curve" smooth="yes"/>
      <point x="636" y="426" type="line"/>
      <point x="464" y="426" type="line"/>
      <point x="397" y="714" type="line"/>
      <point x="379" y="714" type="line"/>
      <point x="314" y="426" type="line"/>
      <point x="153" y="426" type="line"/>
      <point x="119" y="601" type="line" smooth="yes"/>
      <point x="112" y="639"/>
      <point x="108" y="663"/>
      <point x="108" y="676" type="curve" smooth="yes"/>
      <point x="108" y="695"/>
      <point x="113" y="704"/>
      <point x="161" y="704" type="curve" smooth="yes"/>
      <point x="178" y="704" type="line"/>
      <point x="178" y="714" type="line"/>
      <point x="14" y="714" type="line"/>
      <point x="14" y="704" type="line"/>
      <point x="17" y="704" type="line" smooth="yes"/>
      <point x="60" y="704"/>
      <point x="71" y="700"/>
      <point x="80" y="656" type="curve" smooth="yes"/>
      <point x="126" y="426" type="line"/>
      <point x="30" y="426" type="line"/>
      <point x="30" y="416" type="line"/>
      <point x="128" y="416" type="line"/>
      <point x="149" y="308" type="line"/>
      <point x="30" y="308" type="line"/>
      <point x="30" y="298" type="line"/>
      <point x="151" y="298" type="line"/>
    </contour>
    <contour>
      <point x="226" y="39" type="line"/>
      <point x="178" y="298" type="line"/>
      <point x="285" y="298" type="line"/>
    </contour>
    <contour>
      <point x="176" y="308" type="line"/>
      <point x="155" y="416" type="line"/>
      <point x="312" y="416" type="line"/>
      <point x="288" y="308" type="line"/>
    </contour>
    <contour>
      <point x="550" y="39" type="line"/>
      <point x="493" y="298" type="line"/>
      <point x="608" y="298" type="line"/>
    </contour>
    <contour>
      <point x="299" y="308" type="line"/>
      <point x="323" y="416" type="line"/>
      <point x="438" y="416" type="line"/>
      <point x="463" y="308" type="line"/>
    </contour>
    <contour>
      <point x="325" y="426" type="line"/>
      <point x="380" y="668" type="line"/>
      <point x="436" y="426" type="line"/>
    </contour>
    <contour>
      <point x="491" y="308" type="line"/>
      <point x="466" y="416" type="line"/>
      <point x="634" y="416" type="line"/>
      <point x="610" y="308" type="line"/>
    </contour>
  </outline>
</glyph>
<glyph name="Euro" format="2">
  <advance width="425"/>
  <unicode hex="20AC"/>
  <outline>
    <contour>
      <point x="288" y="-10" type="curve" smooth="yes"/>
      <point x="346" y="-10"/>
      <point x="389" y="20"/>
      <point x="389" y="48" type="curve" smooth="yes"/>
      <point x="389" y="56"/>
      <point x="385" y="63"/>
      <point x="374" y="67" type="curve"/>
      <point x="365" y="29"/>
      <point x="343" y="0"/>
      <point x="291" y="0" type="curve" smooth="yes"/>
      <point x="193" y="0"/>
      <point x="146" y="110"/>
      <point x="137" y="284" type="curve"/>
      <point x="283" y="284" type="line"/>
      <point x="283" y="294" type="line"/>
      <point x="137" y="294" type="line"/>
      <point x="136" y="315"/>
      <point x="136" y="326"/>
      <point x="136" y="348" type="curve" smooth="yes"/>
      <point x="136" y="368"/>
      <point x="136" y="376"/>
      <point x="137" y="396" type="curve"/>
      <point x="314" y="396" type="line"/>
      <point x="314" y="406" type="line"/>
      <point x="138" y="406" type="line"/>
      <point x="145" y="588"/>
      <point x="186" y="712"/>
      <point x="291" y="712" type="curve" smooth="yes"/>
      <point x="353" y="712"/>
      <point x="365" y="671"/>
      <point x="365" y="598" type="curve"/>
      <point x="378" y="598"/>
      <point x="391" y="615"/>
      <point x="391" y="641" type="curve" smooth="yes"/>
      <point x="391" y="684"/>
      <point x="357" y="722"/>
      <point x="290" y="722" type="curve" smooth="yes"/>
      <point x="175" y="722"/>
      <point x="118" y="607"/>
      <point x="110" y="406" type="curve"/>
      <point x="39" y="406" type="line"/>
      <point x="39" y="396" type="line"/>
      <point x="110" y="396" type="line"/>
      <point x="109" y="376"/>
      <point x="109" y="367"/>
      <point x="109" y="347" type="curve" smooth="yes"/>
      <point x="109" y="325"/>
      <point x="109" y="315"/>
      <point x="110" y="294" type="curve"/>
      <point x="39" y="294" type="line"/>
      <point x="39" y="284" type="line"/>
      <point x="111" y="284" type="line"/>
      <point x="120" y="107"/>
      <point x="177" y="-10"/>
    </contour>
  </outline>
</glyph>
<glyph name="uni20AE" format="2">
  <advance width="436"/>
  <unicode hex="20AE"/>
  <anchor x="218" y="0" name="bottom"/>
  <anchor x="218" y="357" name="center"/>
  <anchor x="218" y="714" name="top"/>
  <anchor x="436" y="714" name="topright"/>
  <outline>
    <contour>
      <point x="91" y="315" type="line"/>
      <point x="346" y="466" type="line"/>
      <point x="341" y="475" type="line"/>
      <point x="86" y="324" type="line"/>
    </contour>
    <contour>
      <point x="91" y="157" type="line"/>
      <point x="346" y="308" type="line"/>
      <point x="341" y="317" type="line"/>
      <point x="86" y="166" type="line"/>
    </contour>
    <component base="T"/>
  </outline>
</glyph>
<glyph name="uni20B2" format="2">
  <advance width="500"/>
  <unicode hex="20B2"/>
  <anchor x="284" y="-10" name="bottom"/>
  <anchor x="280" y="714" name="top"/>
  <anchor x="480" y="714" name="topright"/>
  <outline>
    <contour>
      <point x="255" y="-77" type="line"/>
      <point x="265" y="-77" type="line"/>
      <point x="265" y="780" type="line"/>
      <point x="255" y="780" type="line"/>
    </contour>
    <component base="G"/>
  </outline>
</glyph>
<glyph name="uni20B4" format="2">
  <advance width="382"/>
  <unicode hex="20B4"/>
  <anchor x="197" y="0" name="bottom"/>
  <anchor x="197" y="714" name="top"/>
  <anchor x="26" y="714" name="topright"/>
  <outline>
    <contour>
      <point x="197" y="-10" type="curve" smooth="yes"/>
      <point x="300" y="-10"/>
      <point x="340" y="64"/>
      <point x="340" y="124" type="curve" smooth="yes"/>
      <point x="340" y="140"/>
      <point x="337" y="168"/>
      <point x="317" y="168" type="curve"/>
      <point x="317" y="74"/>
      <point x="285" y="0"/>
      <point x="195" y="0" type="curve" smooth="yes"/>
      <point x="121" y="0"/>
      <point x="76" y="49"/>
      <point x="76" y="163" type="curve" smooth="yes"/>
      <point x="76" y="264"/>
      <point x="112" y="296"/>
      <point x="201" y="353" type="curve" smooth="yes"/>
      <point x="269" y="397"/>
      <point x="325" y="451"/>
      <point x="325" y="557" type="curve" smooth="yes"/>
      <point x="325" y="659"/>
      <point x="273" y="724"/>
      <point x="187" y="724" type="curve" smooth="yes"/>
      <point x="105" y="724"/>
      <point x="61" y="665"/>
      <point x="61" y="612" type="curve" smooth="yes"/>
      <point x="61" y="585"/>
      <point x="73" y="573"/>
      <point x="84" y="573" type="curve"/>
      <point x="84" y="664"/>
      <point x="120" y="714"/>
      <point x="187" y="714" type="curve" smooth="yes"/>
      <point x="260" y="714"/>
      <point x="297" y="654"/>
      <point x="297" y="558" type="curve" smooth="yes"/>
      <point x="297" y="463"/>
      <point x="260" y="426"/>
      <point x="184" y="376" type="curve" smooth="yes"/>
      <point x="108" y="326"/>
      <point x="48" y="285"/>
      <point x="48" y="167" type="curve" smooth="yes"/>
      <point x="48" y="58"/>
      <point x="99" y="-10"/>
    </contour>
    <contour>
      <point x="21" y="294" type="line"/>
      <point x="382" y="294" type="line"/>
      <point x="382" y="304" type="line"/>
      <point x="21" y="304" type="line"/>
    </contour>
    <contour>
      <point x="21" y="439" type="line"/>
      <point x="382" y="439" type="line"/>
      <point x="382" y="449" type="line"/>
      <point x="21" y="449" type="line"/>
    </contour>
  </outline>
</glyph>
<glyph name="upwardsancora" format="2">
  <advance width="568"/>
  <unicode hex="2E15"/>
  <outline>
    <contour>
      <point x="71" y="71" type="line"/>
      <point x="436" y="476" type="line"/>
      <point x="473" y="433"/>
      <point x="491" y="393"/>
      <point x="491" y="348" type="curve" smooth="yes"/>
      <point x="491" y="324"/>
      <point x="486" y="299"/>
      <point x="475" y="272" type="curve"/>
      <point x="489" y="257" type="line"/>
      <point x="503" y="290"/>
      <point x="510" y="321"/>
      <point x="510" y="350" type="curve" smooth="yes"/>
      <point x="510" y="399"/>
      <point x="489" y="446"/>
      <point x="447" y="492" type="curve" smooth="yes"/>
      <point x="401" y="542"/>
      <point x="356" y="566"/>
      <point x="305" y="566" type="curve" smooth="yes"/>
      <point x="281" y="566"/>
      <point x="254" y="561"/>
      <point x="226" y="549" type="curve"/>
      <point x="238" y="535" type="line"/>
      <point x="261" y="544"/>
      <point x="283" y="549"/>
      <point x="303" y="549" type="curve" smooth="yes"/>
      <point x="345" y="549"/>
      <point x="383" y="530"/>
      <point x="423" y="490" type="curve"/>
      <point x="57" y="85" type="line"/>
    </contour>
  </outline>
</glyph>
<glyph name="uniA642" format="2">
  <advance width="391"/>
  <unicode hex="A642"/>
  <outline>
    <contour>
      <point x="67" y="365" type="line"/>
      <point x="329" y="365" type="line"/>
      <point x="329" y="375" type="line"/>
      <point x="67" y="375" type="line"/>
    </contour>
    <component base="uniA640"/>
  </outline>
</glyph>
<glyph name="uniA656" format="2">
  <advance width="751"/>
  <unicode hex="A656"/>
  <anchor x="502" y="0" name="bottom"/>
  <anchor x="502" y="714" name="top"/>
  <anchor x="651" y="714" name="topright"/>
  <outline>
    <contour>
      <point x="37" y="0" type="line"/>
      <point x="219" y="0" type="line"/>
      <point x="219" y="10" type="line"/>
      <point x="194" y="10" type="line" smooth="yes"/>
      <point x="144" y="10"/>
      <point x="138" y="21"/>
      <point x="138" y="98" type="curve" smooth="yes"/>
      <point x="138" y="369" type="line"/>
      <point x="414" y="369" type="line"/>
      <point x="414" y="379" type="line"/>
      <point x="138" y="379" type="line"/>
      <point x="138" y="616" type="line" smooth="yes"/>
      <point x="138" y="693"/>
      <point x="144" y="704"/>
      <point x="194" y="704" type="curve" smooth="yes"/>
      <point x="219" y="704" type="line"/>
      <point x="219" y="714" type="line"/>
      <point x="37" y="714" type="line"/>
      <point x="37" y="704" type="line"/>
      <point x="54" y="704" type="line" smooth="yes"/>
      <point x="104" y="704"/>
      <point x="110" y="693"/>
      <point x="110" y="616" type="curve" smooth="yes"/>
      <point x="110" y="98" type="line" smooth="yes"/>
      <point x="110" y="21"/>
      <point x="104" y="10"/>
      <point x="54" y="10" type="curve" smooth="yes"/>
      <point x="37" y="10" type="line"/>
    </contour>
    <component base="A" xOffset="252"/>
  </outline>
</glyph>
<glyph name="uniA672" format="2">
  <unicode hex="A672"/>
  <outline>
    <contour>
      <point x="-19" y="497" type="line"/>
      <point x="19" y="497" type="line"/>
      <point x="19" y="594" type="line"/>
      <point x="102" y="594" type="line"/>
      <point x="102" y="635" type="line"/>
      <point x="19" y="635" type="line"/>
      <point x="19" y="729" type="line"/>
      <point x="-19" y="729" type="line"/>
      <point x="-19" y="635" type="line"/>
      <point x="-102" y="635" type="line"/>
      <point x="-102" y="594" type="line"/>
      <point x="-19" y="594" type="line"/>
    </contour>
    <contour>
      <point x="-132" y="-197" type="line"/>
      <point x="-95" y="-197" type="line"/>
      <point x="-95" y="36" type="line"/>
      <point x="-132" y="36" type="line"/>
    </contour>
    <contour>
      <point x="-329" y="57" type="line"/>
      <point x="-141" y="57" type="line"/>
      <point x="-141" y="98" type="line"/>
      <point x="-329" y="98" type="line"/>
    </contour>
    <contour>
      <point x="-19" y="-197" type="line"/>
      <point x="19" y="-197" type="line"/>
      <point x="19" y="36" type="line"/>
      <point x="-19" y="36" type="line"/>
    </contour>
    <contour>
      <point x="-329" y="252" type="line"/>
      <point x="-141" y="252" type="line"/>
      <point x="-141" y="293" type="line"/>
      <point x="-329" y="293" type="line"/>
    </contour>
    <contour>
      <point x="95" y="-197" type="line"/>
      <point x="133" y="-197" type="line"/>
      <point x="133" y="36" type="line"/>
      <point x="95" y="36" type="line"/>
    </contour>
    <contour>
      <point x="-329" y="447" type="line"/>
      <point x="-141" y="447" type="line"/>
      <point x="-141" y="488" type="line"/>
      <point x="-329" y="488" type="line"/>
    </contour>
    <contour>
      <point x="140" y="57" type="line"/>
      <point x="329" y="57" type="line"/>
      <point x="329" y="98" type="line"/>
      <point x="140" y="98" type="line"/>
    </contour>
    <contour>
      <point x="140" y="252" type="line"/>
      <point x="329" y="252" type="line"/>
      <point x="329" y="293" type="line"/>
      <point x="140" y="293" type="line"/>
    </contour>
    <contour>
      <point x="140" y="447" type="line"/>
      <point x="329" y="447" type="line"/>
      <point x="329" y="488" type="line"/>
      <point x="140" y="488" type="line"/>
    </contour>
  </outline>
</glyph>
<glyph name="uniA741" format="2">
  <advance width="405"/>
  <unicode hex="A741"/>
  <anchor x="203" y="760" name="top"/>
  <anchor x="203" y="0" name="bottom"/>
  <anchor x="405" y="760" name="topright"/>
  <outline>
    <contour>
      <point x="20" y="621" type="line"/>
      <point x="227" y="621" type="line"/>
      <point x="227" y="631" type="line"/>
      <point x="20" y="631" type="line"/>
    </contour>
    <component base="k"/>
  </outline>
</glyph>
<glyph name="uniA745" format="2">
  <advance width="405"/>
  <unicode hex="A745"/>
  <anchor x="203" y="0" name="bottom"/>
  <anchor x="203" y="760" name="top"/>
  <anchor x="405" y="760" name="topright"/>
  <outline>
    <contour>
      <point x="193" y="96" type="line"/>
      <point x="362" y="220" type="line"/>
      <point x="356" y="228" type="line"/>
      <point x="187" y="104" type="line"/>
    </contour>
    <contour>
      <point x="20" y="621" type="line"/>
      <point x="227" y="621" type="line"/>
      <point x="227" y="631" type="line"/>
      <point x="20" y="631" type="line"/>
    </contour>
    <component base="k"/>
  </outline>
</glyph>
<glyph name="uniA757" format="2">
  <advance width="439"/>
  <unicode hex="A757"/>
  <anchor x="220" y="-240" name="bottom"/>
  <anchor x="220" y="536" name="top"/>
  <anchor x="419" y="536" name="topright"/>
  <outline>
    <contour>
      <point x="227" y="-111" type="line"/>
      <point x="426" y="-111" type="line"/>
      <point x="426" y="-101" type="line"/>
      <point x="227" y="-101" type="line"/>
    </contour>
    <component base="q"/>
  </outline>
</glyph>
<glyph name="uniA75E" format="2">
  <advance width="494"/>
  <unicode hex="A75E"/>
  <anchor x="247" y="0" name="bottom"/>
  <anchor x="247" y="714" name="top"/>
  <anchor x="514" y="714" name="topright"/>
  <outline>
    <contour>
      <point x="96" y="0" type="line"/>
      <point x="106" y="0" type="line"/>
      <point x="293" y="714" type="line"/>
      <point x="283" y="714" type="line"/>
    </contour>
    <component base="V"/>
  </outline>
</glyph>
<glyph name="uniA764" format="2">
  <advance width="434"/>
  <unicode hex="A764"/>
  <outline>
    <contour>
      <point x="36" y="0" type="line"/>
      <point x="216" y="0" type="line"/>
      <point x="216" y="10" type="line"/>
      <point x="196" y="10" type="line" smooth="yes"/>
      <point x="146" y="10"/>
      <point x="140" y="21"/>
      <point x="140" y="98" type="curve" smooth="yes"/>
      <point x="140" y="148" type="line"/>
      <point x="202" y="148" type="line" smooth="yes"/>
      <point x="333" y="148"/>
      <point x="397" y="193"/>
      <point x="397" y="343" type="curve" smooth="yes"/>
      <point x="397" y="478"/>
      <point x="344" y="534"/>
      <point x="219" y="534" type="curve" smooth="yes"/>
      <point x="140" y="534" type="line"/>
      <point x="140" y="611" type="line"/>
      <point x="232" y="611" type="line"/>
      <point x="232" y="621" type="line"/>
      <point x="140" y="621" type="line"/>
      <point x="141" y="693"/>
      <point x="150" y="704"/>
      <point x="196" y="704" type="curve" smooth="yes"/>
      <point x="216" y="704" type="line"/>
      <point x="216" y="714" type="line"/>
      <point x="36" y="714" type="line"/>
      <point x="36" y="704" type="line"/>
      <point x="56" y="704" type="line" smooth="yes"/>
      <point x="102" y="704"/>
      <point x="111" y="693"/>
      <point x="112" y="621" type="curve"/>
      <point x="36" y="621" type="line"/>
      <point x="36" y="611" type="line"/>
      <point x="112" y="611" type="line"/>
      <point x="112" y="98" type="line" smooth="yes"/>
      <point x="112" y="21"/>
      <point x="106" y="10"/>
      <point x="56" y="10" type="curve" smooth="yes"/>
      <point x="36" y="10" type="line"/>
    </contour>
    <contour>
      <point x="140" y="158" type="line"/>
      <point x="140" y="524" type="line"/>
      <point x="217" y="524" type="line" smooth="yes"/>
      <point x="328" y="524"/>
      <point x="369" y="479"/>
      <point x="369" y="339" type="curve" smooth="yes"/>
      <point x="369" y="196"/>
      <point x="320" y="158"/>
      <point x="204" y="158" type="curve" smooth="yes"/>
    </contour>
  </outline>
</glyph>
<glyph name="uniA765" format="2">
  <advance width="442"/>
  <unicode hex="A765"/>
  <anchor x="221" y="-240" name="bottom"/>
  <anchor x="221" y="760" name="top"/>
  <outline>
    <contour>
      <point x="22" y="621" type="line"/>
      <point x="223" y="621" type="line"/>
      <point x="223" y="631" type="line"/>
      <point x="22" y="631" type="line"/>
    </contour>
    <component base="thorn"/>
  </outline>
</glyph>
<glyph name="uniA799" format="2">
  <advance width="252"/>
  <unicode hex="A799"/>
  <anchor x="125" y="0" name="bottom"/>
  <anchor x="193" y="772" name="top"/>
  <anchor x="320" y="772" name="topright"/>
  <outline>
    <contour>
      <point x="26" y="273" type="line"/>
      <point x="211" y="273" type="line"/>
      <point x="211" y="283" type="line"/>
      <point x="26" y="283" type="line"/>
    </contour>
    <component base="f"/>
  </outline>
</glyph>
<glyph name="uniA7A0" format="2">
  <advance width="500"/>
  <unicode hex="A7A0"/>
  <anchor x="280" y="0" name="bottom"/>
  <anchor x="280" y="714" name="top"/>
  <anchor x="480" y="714" name="topright"/>
  <outline>
    <contour>
      <point x="-4" y="284" type="line"/>
      <point x="509" y="412" type="line"/>
      <point x="509" y="422" type="line"/>
      <point x="-4" y="294" type="line"/>
    </contour>
    <component base="G"/>
  </outline>
</glyph>
<glyph name="uniA7A1" format="2">
  <advance width="391"/>
  <unicode hex="A7A1"/>
  <anchor x="196" y="-242" name="bottom"/>
  <anchor x="196" y="536" name="top"/>
  <anchor x="391" y="536" name="topright"/>
  <outline>
    <contour>
      <point x="15" y="313" type="line"/>
      <point x="363" y="404" type="line"/>
      <point x="363" y="414" type="line"/>
      <point x="15" y="323" type="line"/>
    </contour>
    <component base="g"/>
  </outline>
</glyph>
<glyph name="uniA7A2" format="2">
  <advance width="503"/>
  <unicode hex="A7A2"/>
  <anchor x="252" y="0" name="bottom"/>
  <anchor x="252" y="714" name="top"/>
  <anchor x="483" y="714" name="topright"/>
  <outline>
    <contour>
      <point x="43" y="136" type="line"/>
      <point x="489" y="232" type="line"/>
      <point x="489" y="242" type="line"/>
      <point x="43" y="146" type="line"/>
    </contour>
    <component base="K"/>
  </outline>
</glyph>
<glyph name="uniA7A4" format="2">
  <advance width="559"/>
  <unicode hex="A7A4"/>
  <anchor x="280" y="0" name="bottom"/>
  <anchor x="280" y="714" name="top"/>
  <anchor x="539" y="714" name="topright"/>
  <outline>
    <contour>
      <point x="33" y="279" type="line"/>
      <point x="527" y="432" type="line"/>
      <point x="527" y="442" type="line"/>
      <point x="33" y="289" type="line"/>
    </contour>
    <component base="N"/>
  </outline>
</glyph>
<glyph name="uniA7A5" format="2">
  <advance width="472"/>
  <unicode hex="A7A5"/>
  <anchor x="236" y="0" name="bottom"/>
  <anchor x="236" y="536" name="top"/>
  <anchor x="452" y="536" name="topright"/>
  <outline>
    <contour>
      <point x="29" y="206" type="line"/>
      <point x="454" y="316" type="line"/>
      <point x="454" y="326" type="line"/>
      <point x="29" y="216" type="line"/>
    </contour>
    <component base="n" xOffset="-1"/>
  </outline>
</glyph>
<glyph name="uniA7A6" format="2">
  <advance width="457"/>
  <unicode hex="A7A6"/>
  <anchor x="250" y="0" name="bottom"/>
  <anchor x="229" y="714" name="top"/>
  <anchor x="437" y="714" name="topright"/>
  <outline>
    <contour>
      <point x="43" y="454" type="line"/>
      <point x="449" y="565" type="line"/>
      <point x="449" y="575" type="line"/>
      <point x="43" y="464" type="line"/>
    </contour>
    <component base="R"/>
  </outline>
</glyph>
<glyph name="uniA7A8" format="2">
  <advance width="382"/>
  <unicode hex="A7A8"/>
  <anchor x="187" y="-10" name="bottom"/>
  <anchor x="191" y="714" name="top"/>
  <anchor x="362" y="714" name="topright"/>
  <outline>
    <contour>
      <point x="53" y="325" type="line"/>
      <point x="341" y="381" type="line"/>
      <point x="341" y="391" type="line"/>
      <point x="53" y="335" type="line"/>
    </contour>
    <component base="S"/>
  </outline>
</glyph>
<glyph name="uniA7AE" format="2">
  <advance width="384"/>
  <unicode hex="A7AE"/>
  <outline>
    <contour>
      <point x="19" y="0" type="line"/>
      <point x="364" y="0" type="line"/>
      <point x="367" y="117" type="line"/>
      <point x="359" y="117" type="line"/>
      <point x="357" y="71" type="line" smooth="yes"/>
      <point x="355" y="32"/>
      <point x="348" y="14"/>
      <point x="311" y="14" type="curve" smooth="yes"/>
      <point x="207" y="14" type="line"/>
      <point x="207" y="522" type="line"/>
      <point x="311" y="522" type="line" smooth="yes"/>
      <point x="348" y="522"/>
      <point x="355" y="504"/>
      <point x="357" y="465" type="curve" smooth="yes"/>
      <point x="359" y="419" type="line"/>
      <point x="367" y="419" type="line"/>
      <point x="364" y="536" type="line"/>
      <point x="19" y="536" type="line"/>
      <point x="16" y="419" type="line"/>
      <point x="25" y="419" type="line"/>
      <point x="27" y="465" type="line" smooth="yes"/>
      <point x="29" y="504"/>
      <point x="35" y="522"/>
      <point x="73" y="522" type="curve" smooth="yes"/>
      <point x="177" y="522" type="line"/>
      <point x="177" y="14" type="line"/>
      <point x="73" y="14" type="line" smooth="yes"/>
      <point x="35" y="14"/>
      <point x="29" y="32"/>
      <point x="27" y="71" type="curve" smooth="yes"/>
      <point x="25" y="117" type="line"/>
      <point x="16" y="117" type="line"/>
    </contour>
  </outline>
</glyph>
<glyph name="uniA7B9" format="2">
  <advance width="458"/>
  <unicode hex="A7B9"/>
  <anchor x="229" y="0" name="bottom"/>
  <anchor x="229" y="536" name="top"/>
  <anchor x="418" y="536" name="topright"/>
  <outline>
    <contour>
      <point x="76" y="-11" type="line"/>
      <point x="87" y="-11" type="line"/>
      <point x="383" y="547" type="line"/>
      <point x="372" y="547" type="line"/>
    </contour>
    <component base="u"/>
  </outline>
</glyph>
<glyph name="uniA7C4" format="2">
  <advance width="427"/>
  <unicode hex="A7C4"/>
  <anchor x="251" y="-10" name="bottom"/>
  <anchor x="254" y="714" name="top"/>
  <anchor x="407" y="714" name="topright"/>
  <outline>
    <contour>
      <point x="399" y="-112" type="curve" smooth="yes"/>
      <point x="399" y="87" type="line"/>
      <point x="390" y="87" type="line"/>
      <point x="390" y="-112" type="line" smooth="yes"/>
      <point x="390" y="-167"/>
      <point x="366" y="-199"/>
      <point x="330" y="-199" type="curve" smooth="yes"/>
      <point x="300" y="-199"/>
      <point x="295" y="-150"/>
      <point x="270" y="-150" type="curve" smooth="yes"/>
      <point x="253" y="-150"/>
      <point x="242" y="-160"/>
      <point x="242" y="-177" type="curve" smooth="yes"/>
      <point x="242" y="-204"/>
      <point x="266" y="-220"/>
      <point x="303" y="-220" type="curve" smooth="yes"/>
      <point x="362" y="-220"/>
      <point x="399" y="-189"/>
    </contour>
    <component base="C"/>
  </outline>
</glyph>
<glyph name="uniA7C5" format="2">
  <advance width="382"/>
  <unicode hex="A7C5"/>
  <anchor x="187" y="-10" name="bottom"/>
  <anchor x="191" y="714" name="top"/>
  <anchor x="362" y="714" name="topright"/>
  <outline>
    <contour>
      <point x="48" y="-112" type="line"/>
      <point x="48" y="-189"/>
      <point x="85" y="-220"/>
      <point x="144" y="-220" type="curve" smooth="yes"/>
      <point x="181" y="-220"/>
      <point x="205" y="-204"/>
      <point x="205" y="-177" type="curve" smooth="yes"/>
      <point x="205" y="-160"/>
      <point x="194" y="-150"/>
      <point x="177" y="-150" type="curve" smooth="yes"/>
      <point x="152" y="-150"/>
      <point x="147" y="-199"/>
      <point x="117" y="-199" type="curve" smooth="yes"/>
      <point x="81" y="-199"/>
      <point x="57" y="-167"/>
      <point x="57" y="-112" type="curve" smooth="yes"/>
      <point x="57" y="124" type="line"/>
      <point x="48" y="124" type="line"/>
    </contour>
    <component base="S"/>
  </outline>
</glyph>
<glyph name="uniA7C7" format="2">
  <advance width="522"/>
  <unicode hex="A7C7"/>
  <anchor x="261" y="0" name="bottom"/>
  <anchor x="261" y="357" name="center"/>
  <anchor x="261" y="714" name="top"/>
  <anchor x="502" y="714" name="topright"/>
  <outline>
    <contour>
      <point x="123" y="363" type="line"/>
      <point x="462" y="363" type="line"/>
      <point x="462" y="373" type="line"/>
      <point x="123" y="373" type="line"/>
    </contour>
    <component base="D"/>
  </outline>
</glyph>
<glyph name="uniA7CA" format="2">
  <advance width="315"/>
  <unicode hex="A7CA"/>
  <anchor x="158" y="0" name="bottom"/>
  <anchor x="158" y="536" name="top"/>
  <anchor x="285" y="536" name="topright"/>
  <outline>
    <contour>
      <point x="29" y="273" type="line"/>
      <point x="293" y="273" type="line"/>
      <point x="293" y="283" type="line"/>
      <point x="29" y="283" type="line"/>
    </contour>
    <component base="s"/>
  </outline>
</glyph>
<glyph name="uniA7FF" format="2">
  <advance width="822"/>
  <unicode hex="A7FF"/>
  <outline>
    <contour>
      <point x="-2" y="0" type="line"/>
      <point x="139" y="0" type="line"/>
      <point x="139" y="10" type="line"/>
      <point x="109" y="10" type="line" smooth="yes"/>
      <point x="78" y="10"/>
      <point x="71" y="20"/>
      <point x="71" y="33" type="curve" smooth="yes"/>
      <point x="71" y="45"/>
      <point x="77" y="66"/>
      <point x="85" y="98" type="curve" smooth="yes"/>
      <point x="150" y="344" type="line" smooth="yes"/>
      <point x="170" y="418"/>
      <point x="184" y="472"/>
      <point x="195" y="517" type="curve"/>
      <point x="197" y="517" type="line"/>
      <point x="210" y="461"/>
      <point x="223" y="407"/>
      <point x="237" y="352" type="curve" smooth="yes"/>
      <point x="324" y="0" type="line"/>
      <point x="344" y="0" type="line"/>
      <point x="471" y="514" type="line"/>
      <point x="612" y="0" type="line"/>
      <point x="633" y="0" type="line"/>
      <point x="731" y="477" type="line" smooth="yes"/>
      <point x="740" y="523"/>
      <point x="748" y="526"/>
      <point x="789" y="526" type="curve" smooth="yes"/>
      <point x="809" y="526" type="line"/>
      <point x="809" y="536" type="line"/>
      <point x="666" y="536" type="line"/>
      <point x="666" y="526" type="line"/>
      <point x="688" y="526" type="line" smooth="yes"/>
      <point x="719" y="526"/>
      <point x="723" y="519"/>
      <point x="723" y="506" type="curve" smooth="yes"/>
      <point x="723" y="494"/>
      <point x="719" y="470"/>
      <point x="712" y="438" type="curve" smooth="yes"/>
      <point x="665" y="208" type="line" smooth="yes"/>
      <point x="648" y="124"/>
      <point x="637" y="68"/>
      <point x="630" y="31" type="curve"/>
      <point x="628" y="31" type="line"/>
      <point x="620" y="71"/>
      <point x="596" y="171"/>
      <point x="582" y="221" type="curve" smooth="yes"/>
      <point x="493" y="536" type="line"/>
      <point x="466" y="536" type="line"/>
      <point x="386" y="212" type="line" smooth="yes"/>
      <point x="374" y="163"/>
      <point x="349" y="63"/>
      <point x="342" y="31" type="curve"/>
      <point x="340" y="31" type="line"/>
      <point x="336" y="64"/>
      <point x="315" y="150"/>
      <point x="303" y="197" type="curve" smooth="yes"/>
      <point x="217" y="536" type="line"/>
      <point x="190" y="536" type="line"/>
      <point x="64" y="59" type="line" smooth="yes"/>
      <point x="52" y="13"/>
      <point x="47" y="10"/>
      <point x="6" y="10" type="curve" smooth="yes"/>
      <point x="-2" y="10" type="line"/>
    </contour>
  </outline>
</glyph>
<glyph name="uniAB30" format="2">
  <advance width="438"/>
  <unicode hex="AB30"/>
  <anchor x="219" y="0" name="bottom"/>
  <anchor x="219" y="536" name="top"/>
  <outline>
    <contour>
      <point x="-5" y="281" type="line"/>
      <point x="432" y="281" type="line"/>
      <point x="432" y="291" type="line"/>
      <point x="-5" y="291" type="line"/>
    </contour>
    <component base="uni0251"/>
  </outline>
</glyph>
<glyph name="uniAB41" format="2">
  <advance width="655"/>
  <unicode hex="AB41"/>
  <anchor x="330" y="535" name="bottom"/>
  <anchor x="330" y="-1" name="top"/>
  <outline>
    <contour>
      <point x="301" y="-32" type="line"/>
      <point x="312" y="-32" type="line"/>
      <point x="611" y="570" type="line"/>
      <point x="600" y="570" type="line"/>
    </contour>
    <component base="oe" xScale="-1" yScale="-1" xOffset="663" yOffset="535"/>
  </outline>
</glyph>
<glyph name="uniAB42" format="2">
  <advance width="664"/>
  <unicode hex="AB42"/>
  <anchor x="330" y="535" name="bottom"/>
  <anchor x="330" y="-1" name="top"/>
  <outline>
    <contour>
      <point x="319" y="276" type="line"/>
      <point x="598" y="276" type="line"/>
      <point x="598" y="286" type="line"/>
      <point x="319" y="286" type="line"/>
    </contour>
    <component base="oe" xScale="-1" yScale="-1" xOffset="663" yOffset="535"/>
  </outline>
</glyph>
<glyph name="uniAB60" format="2">
  <advance width="656"/>
  <unicode hex="AB60"/>
  <outline>
    <contour>
      <point x="253" y="0" type="line"/>
      <point x="460" y="0" type="line" smooth="yes"/>
      <point x="552" y="0"/>
      <point x="609" y="47"/>
      <point x="609" y="153" type="curve" smooth="yes"/>
      <point x="609" y="265"/>
      <point x="540" y="287"/>
      <point x="445" y="287" type="curve" smooth="yes"/>
      <point x="363" y="287" type="line"/>
      <point x="363" y="450" type="line" smooth="yes"/>
      <point x="363" y="521"/>
      <point x="369" y="526"/>
      <point x="428" y="526" type="curve" smooth="yes"/>
      <point x="437" y="526" type="line"/>
      <point x="437" y="536" type="line"/>
      <point x="253" y="536" type="line"/>
      <point x="253" y="526" type="line"/>
      <point x="268" y="526" type="line" smooth="yes"/>
      <point x="329" y="526"/>
      <point x="335" y="521"/>
      <point x="335" y="450" type="curve" smooth="yes"/>
      <point x="335" y="86" type="line" smooth="yes"/>
      <point x="335" y="16"/>
      <point x="329" y="10"/>
      <point x="268" y="10" type="curve" smooth="yes"/>
      <point x="253" y="10" type="line"/>
    </contour>
    <contour>
      <point x="37" y="0" type="line"/>
      <point x="202" y="0" type="line"/>
      <point x="202" y="10" type="line"/>
      <point x="198" y="10" type="line" smooth="yes"/>
      <point x="138" y="10"/>
      <point x="132" y="16"/>
      <point x="132" y="86" type="curve" smooth="yes"/>
      <point x="132" y="450" type="line" smooth="yes"/>
      <point x="132" y="519"/>
      <point x="138" y="526"/>
      <point x="198" y="526" type="curve" smooth="yes"/>
      <point x="202" y="526" type="line"/>
      <point x="202" y="536" type="line"/>
      <point x="37" y="536" type="line"/>
      <point x="37" y="526" type="line"/>
      <point x="42" y="526" type="line" smooth="yes"/>
      <point x="98" y="526"/>
      <point x="104" y="519"/>
      <point x="104" y="450" type="curve" smooth="yes"/>
      <point x="104" y="86" type="line" smooth="yes"/>
      <point x="104" y="16"/>
      <point x="98" y="10"/>
      <point x="38" y="10" type="curve" smooth="yes"/>
      <point x="37" y="10" type="line"/>
    </contour>
    <contour>
      <point x="363" y="10" type="line"/>
      <point x="363" y="277" type="line"/>
      <point x="455" y="277" type="line" smooth="yes"/>
      <point x="546" y="277"/>
      <point x="581" y="248"/>
      <point x="581" y="153" type="curve" smooth="yes"/>
      <point x="581" y="49"/>
      <point x="544" y="10"/>
      <point x="461" y="10" type="curve" smooth="yes"/>
    </contour>
  </outline>
</glyph>
<glyph name="uniAB69" format="2">
  <advance width="425"/>
  <unicode hex="AB69"/>
  <anchor x="213" y="287" name="bottom"/>
  <anchor x="6" y="287" name="bottomleft"/>
  <anchor x="213" y="609" name="top"/>
  <outline>
    <contour>
      <point x="387" y="325" type="curve" smooth="yes"/>
      <point x="315" y="609" type="line"/>
      <point x="302" y="609" type="line"/>
      <point x="220" y="301" type="line"/>
      <point x="128" y="609" type="line"/>
      <point x="114" y="609" type="line"/>
      <point x="51" y="323" type="line" smooth="yes"/>
      <point x="45" y="295"/>
      <point x="40" y="293"/>
      <point x="13" y="293" type="curve" smooth="yes"/>
      <point x="1" y="293" type="line"/>
      <point x="1" y="287" type="line"/>
      <point x="94" y="287" type="line"/>
      <point x="94" y="293" type="line"/>
      <point x="79" y="293" type="line" smooth="yes"/>
      <point x="58" y="293"/>
      <point x="56" y="298"/>
      <point x="56" y="305" type="curve" smooth="yes"/>
      <point x="56" y="313"/>
      <point x="58" y="327"/>
      <point x="63" y="346" type="curve" smooth="yes"/>
      <point x="94" y="484" type="line" smooth="yes"/>
      <point x="105" y="535"/>
      <point x="112" y="568"/>
      <point x="116" y="590" type="curve"/>
      <point x="118" y="590" type="line"/>
      <point x="123" y="566"/>
      <point x="138" y="506"/>
      <point x="148" y="476" type="curve" smooth="yes"/>
      <point x="205" y="287" type="line"/>
      <point x="223" y="287" type="line"/>
      <point x="275" y="485" type="line" smooth="yes"/>
      <point x="283" y="514"/>
      <point x="299" y="571"/>
      <point x="304" y="590" type="curve"/>
      <point x="305" y="590" type="line"/>
      <point x="307" y="571"/>
      <point x="320" y="519"/>
      <point x="327" y="491" type="curve" smooth="yes"/>
      <point x="363" y="348" type="line" smooth="yes"/>
      <point x="367" y="334"/>
      <point x="372" y="311"/>
      <point x="372" y="305" type="curve" smooth="yes"/>
      <point x="372" y="298"/>
      <point x="369" y="293"/>
      <point x="347" y="293" type="curve" smooth="yes"/>
      <point x="333" y="293" type="line"/>
      <point x="333" y="287" type="line"/>
      <point x="424" y="287" type="line"/>
      <point x="424" y="293" type="line"/>
      <point x="423" y="293" type="line" smooth="yes"/>
      <point x="398" y="293"/>
      <point x="394" y="296"/>
    </contour>
  </outline>
</glyph>
<glyph name="uniFE20" format="2">
  <unicode hex="FE20"/>
  <anchor x="2" y="536" name="_top"/>
  <outline>
    <contour>
      <point x="-292" y="593" type="curve"/>
      <point x="-280" y="593" type="line"/>
      <point x="-220" y="693"/>
      <point x="-124" y="726"/>
      <point x="2" y="726" type="curve"/>
      <point x="2" y="754" type="line"/>
      <point x="-8" y="754" type="line" smooth="yes"/>
      <point x="-140" y="754"/>
      <point x="-219" y="718"/>
    </contour>
  </outline>
</glyph>
<glyph name="uniFE21" format="2">
  <unicode hex="FE21"/>
  <anchor x="0" y="536" name="_top"/>
  <outline>
    <contour>
      <point x="282" y="593" type="curve"/>
      <point x="294" y="593" type="line"/>
      <point x="221" y="718"/>
      <point x="141" y="754"/>
      <point x="8" y="754" type="curve" smooth="yes"/>
      <point x="0" y="754" type="line"/>
      <point x="0" y="726" type="line"/>
      <point x="126" y="726"/>
      <point x="223" y="693"/>
    </contour>
  </outline>
</glyph>
<glyph name="uniFE22" format="2">
  <unicode hex="FE22"/>
  <anchor x="2" y="536" name="_top"/>
  <outline>
    <contour>
      <point x="-291" y="600" type="curve"/>
      <point x="-281" y="600" type="line"/>
      <point x="-265" y="656"/>
      <point x="-237" y="675"/>
      <point x="-172" y="675" type="curve" smooth="yes"/>
      <point x="-112" y="675"/>
      <point x="-51" y="659"/>
      <point x="2" y="640" type="curve"/>
      <point x="2" y="668" type="line"/>
      <point x="-16" y="674"/>
      <point x="-90" y="703"/>
      <point x="-159" y="703" type="curve" smooth="yes"/>
      <point x="-221" y="703"/>
      <point x="-272" y="679"/>
    </contour>
  </outline>
</glyph>
<glyph name="uniFE23" format="2">
  <unicode hex="FE23"/>
  <anchor x="-1" y="536" name="_top"/>
  <outline>
    <contour>
      <point x="160" y="605" type="curve" smooth="yes"/>
      <point x="222" y="605"/>
      <point x="273" y="629"/>
      <point x="292" y="708" type="curve"/>
      <point x="282" y="708" type="line"/>
      <point x="265" y="648"/>
      <point x="233" y="633"/>
      <point x="173" y="633" type="curve" smooth="yes"/>
      <point x="112" y="633"/>
      <point x="52" y="649"/>
      <point x="-1" y="668" type="curve"/>
      <point x="-1" y="640" type="line"/>
      <point x="17" y="634"/>
      <point x="91" y="605"/>
    </contour>
  </outline>
</glyph>
<glyph name="uniFE27" format="2">
  <unicode hex="FE27"/>
  <anchor x="0" y="0" name="_bottom"/>
  <anchor x="-147" y="536" name="braceleft"/>
  <outline>
    <contour>
      <point x="0" y="-200" type="curve"/>
      <point x="0" y="-172" type="line"/>
      <point x="-126" y="-172"/>
      <point x="-224" y="-139"/>
      <point x="-282" y="-39" type="curve"/>
      <point x="-294" y="-39" type="line"/>
      <point x="-223" y="-161"/>
      <point x="-150" y="-200"/>
    </contour>
  </outline>
</glyph>
<glyph name="uniFE29" format="2">
  <unicode hex="FE29"/>
  <anchor x="0" y="0" name="_bottom"/>
  <anchor x="-140" y="536" name="braceleft"/>
  <outline>
    <contour>
      <point x="-280" y="-189" type="curve"/>
      <point x="-270" y="-189" type="line"/>
      <point x="-266" y="-165"/>
      <point x="-255" y="-146"/>
      <point x="-250" y="-139" type="curve" smooth="yes"/>
      <point x="-234" y="-116"/>
      <point x="-204" y="-102"/>
      <point x="-158" y="-102" type="curve" smooth="yes"/>
      <point x="-113" y="-102"/>
      <point x="-67" y="-115"/>
      <point x="0" y="-139" type="curve"/>
      <point x="0" y="-110" type="line"/>
      <point x="-53" y="-91"/>
      <point x="-106" y="-74"/>
      <point x="-150" y="-74" type="curve" smooth="yes"/>
      <point x="-222" y="-74"/>
      <point x="-267" y="-118"/>
    </contour>
  </outline>
</glyph>
<glyph name="uniFE2A" format="2">
  <unicode hex="FE2A"/>
  <anchor x="0" y="0" name="_bottom"/>
  <anchor x="140" y="536" name="braceleft"/>
  <outline>
    <contour>
      <point x="150" y="-187" type="curve" smooth="yes"/>
      <point x="222" y="-187"/>
      <point x="267" y="-143"/>
      <point x="280" y="-72" type="curve"/>
      <point x="270" y="-72" type="line"/>
      <point x="266" y="-96"/>
      <point x="255" y="-115"/>
      <point x="250" y="-122" type="curve" smooth="yes"/>
      <point x="234" y="-145"/>
      <point x="204" y="-159"/>
      <point x="158" y="-159" type="curve" smooth="yes"/>
      <point x="113" y="-159"/>
      <point x="67" y="-146"/>
      <point x="0" y="-122" type="curve"/>
      <point x="0" y="-151" type="line"/>
      <point x="53" y="-170"/>
      <point x="106" y="-187"/>
    </contour>
  </outline>
</glyph>
<glyph name="uniFE2E" format="2">
  <unicode hex="FE2E"/>
  <anchor x="-81" y="536" name="_top"/>
  <outline>
    <contour>
      <point x="-81" y="583" type="curve" smooth="yes"/>
      <point x="-66" y="583"/>
      <point x="-62" y="599"/>
      <point x="-61" y="634" type="curve"/>
      <point x="99" y="634" type="line"/>
      <point x="99" y="654" type="line"/>
      <point x="-79" y="654" type="line" smooth="yes"/>
      <point x="-97" y="654"/>
      <point x="-99" y="653"/>
      <point x="-99" y="631" type="curve" smooth="yes"/>
      <point x="-99" y="597"/>
      <point x="-97" y="583"/>
    </contour>
  </outline>
</glyph>
<glyph name="uniFE2F" format="2">
  <unicode hex="FE2F"/>
  <anchor x="82" y="536" name="_top"/>
  <outline>
    <contour>
      <point x="-100" y="620" type="line"/>
      <point x="80" y="620" type="line" smooth="yes"/>
      <point x="98" y="620"/>
      <point x="100" y="621"/>
      <point x="100" y="643" type="curve" smooth="yes"/>
      <point x="100" y="677"/>
      <point x="98" y="691"/>
      <point x="82" y="691" type="curve" smooth="yes"/>
      <point x="67" y="691"/>
      <point x="63" y="675"/>
      <point x="62" y="640" type="curve"/>
      <point x="-100" y="640" type="line"/>
    </contour>
  </outline>
</glyph>
<glyph name="lslash.sc" format="2">
  <advance width="383"/>
  <anchor x="192" y="0" name="bottom"/>
  <anchor x="192" y="571" name="top"/>
  <anchor x="192" y="286" name="center"/>
  <anchor x="363" y="571" name="topright"/>
  <outline>
    <contour>
      <point x="40" y="207" type="line"/>
      <point x="235" y="330" type="line"/>
      <point x="235" y="342" type="line"/>
      <point x="40" y="219" type="line"/>
    </contour>
    <component base="l.sc"/>
  </outline>
</glyph>
<glyph name="uni0268dotless" format="2">
  <advance width="219"/>
  <anchor x="110" y="0" name="bottom"/>
  <anchor x="110" y="536" name="top"/>
  <outline>
    <contour>
      <point x="24" y="285" type="line"/>
      <point x="211" y="285" type="line"/>
      <point x="211" y="295" type="line"/>
      <point x="24" y="295" type="line"/>
    </contour>
    <component base="idotless"/>
  </outline>
</glyph>
